<svg width="45" height="45" viewBox="0 0 45 45" fill="none" xmlns="http://www.w3.org/2000/svg">
<path d="M0.441406 21.8601C0.441406 9.7871 10.2285 0 22.3015 0C34.3745 0 44.1615 9.7871 44.1615 21.8601C44.1615 33.933 34.3745 43.7201 22.3015 43.7201C10.2285 43.7201 0.441406 33.933 0.441406 21.8601Z" fill="#4D90FE"/>
<path d="M30.6574 23.3102V24.1943C30.6574 24.4331 30.4717 24.6276 30.2242 24.6364H28.9333C28.4648 24.6364 28.0404 24.2916 28.005 23.8319C27.9785 23.5578 28.0846 23.3014 28.2614 23.1246C28.4206 22.9566 28.6416 22.8682 28.8803 22.8682H30.2153C30.4717 22.877 30.6574 23.0715 30.6574 23.3102Z" fill="white"/>
<path d="M27.5979 22.4702C27.1559 22.9034 26.9437 23.5488 27.1206 24.2207C27.3504 25.0428 28.1549 25.5644 29.0036 25.5644H29.7727C30.2589 25.5644 30.6567 25.9622 30.6567 26.4484V26.6164C30.6567 28.4464 29.1627 29.9404 27.3327 29.9404H17.1839C15.3539 29.9404 13.8599 28.4464 13.8599 26.6164V20.6668C13.8599 19.5794 14.3815 18.6158 15.1859 18.0146C15.7429 17.5903 16.4324 17.3428 17.1839 17.3428H27.3327C29.1627 17.3428 30.6567 18.8368 30.6567 20.6668V21.0558C30.6567 21.542 30.2589 21.9398 29.7727 21.9398H28.871C28.3759 21.9398 27.925 22.1343 27.5979 22.4702Z" fill="white"/>
<path d="M26.0161 15.5118C26.2548 15.7505 26.0514 16.1218 25.7155 16.1218L18.9254 16.113C18.5364 16.113 18.3331 15.6355 18.616 15.3615L20.0482 13.9204C21.2595 12.718 23.2222 12.718 24.4335 13.9204L25.9807 15.4852C25.9895 15.4941 26.0072 15.5029 26.0161 15.5118Z" fill="white"/>
</svg>
