<svg width="45" height="45" viewBox="0 0 45 45" fill="none" xmlns="http://www.w3.org/2000/svg">
<path d="M0.000488281 22.2604C0.000488281 10.1875 9.78759 0.400391 21.8606 0.400391C33.9335 0.400391 43.7205 10.1875 43.7205 22.2604C43.7205 34.3334 33.9335 44.1205 21.8606 44.1205C9.78759 44.1205 0.000488281 34.3334 0.000488281 22.2604Z" fill="#0161FE"/>
<path d="M19.4896 23.3928H22.2213V29.758C22.2213 30.6951 23.3883 31.1371 24.0071 30.4298L30.6993 22.827C31.2828 22.164 30.8142 21.1297 29.9302 21.1297H27.1985V14.7645C27.1985 13.8275 26.0316 13.3854 25.4127 14.0927L18.7205 21.6955C18.1459 22.3585 18.6144 23.3928 19.4896 23.3928Z" fill="white"/>
<path d="M18.765 15.8506H12.5762C12.2137 15.8506 11.9131 15.55 11.9131 15.1875C11.9131 14.825 12.2137 14.5244 12.5762 14.5244H18.765C19.1275 14.5244 19.4281 14.825 19.4281 15.1875C19.4281 15.55 19.1275 15.8506 18.765 15.8506Z" fill="white"/>
<path d="M17.8809 29.9951H12.5762C12.2137 29.9951 11.9131 29.6945 11.9131 29.332C11.9131 28.9695 12.2137 28.6689 12.5762 28.6689H17.8809C18.2434 28.6689 18.544 28.9695 18.544 29.332C18.544 29.6945 18.2434 29.9951 17.8809 29.9951Z" fill="white"/>
<path d="M15.2285 22.9229H12.5762C12.2137 22.9229 11.9131 22.6223 11.9131 22.2598C11.9131 21.8973 12.2137 21.5967 12.5762 21.5967H15.2285C15.591 21.5967 15.8916 21.8973 15.8916 22.2598C15.8916 22.6223 15.591 22.9229 15.2285 22.9229Z" fill="white"/>
</svg>
