<svg width="45" height="45" viewBox="0 0 45 45" fill="none" xmlns="http://www.w3.org/2000/svg">
<path d="M0.441406 21.8601C0.441406 9.7871 10.2285 0 22.3015 0C34.3745 0 44.1615 9.7871 44.1615 21.8601C44.1615 33.933 34.3745 43.7201 22.3015 43.7201C10.2285 43.7201 0.441406 33.933 0.441406 21.8601Z" fill="#4D90FE"/>
<path d="M24.7427 30.6991C24.6897 30.6991 24.6278 30.6903 24.5747 30.6726C22.7977 30.1686 20.9322 30.1686 19.1551 30.6726C18.828 30.761 18.4831 30.5753 18.3947 30.2482C18.2975 29.9211 18.492 29.5763 18.8191 29.4879C20.8172 28.922 22.9214 28.922 24.9195 29.4879C25.2467 29.5851 25.4412 29.9211 25.3439 30.2482C25.2555 30.5223 25.0079 30.6991 24.7427 30.6991Z" fill="white"/>
<path d="M28.2326 16.8748C27.3132 15.0183 25.5363 13.648 23.4765 13.1971C21.3194 12.7197 19.1093 13.2325 17.4207 14.5939C15.7234 15.9465 14.7598 17.971 14.7598 20.1369C14.7598 22.4266 16.13 24.8223 18.1987 26.2103V26.944C18.1899 27.1916 18.181 27.5717 18.4816 27.8811C18.791 28.1994 19.2507 28.2347 19.6132 28.2347H24.1483C24.6257 28.2347 24.9882 28.1021 25.2357 27.8546C25.5716 27.5098 25.5628 27.0678 25.554 26.8291V26.2103C28.2945 24.3626 30.0184 20.464 28.2326 16.8748ZM23.3792 21.5248L22.4333 23.1692C22.3095 23.3813 22.0885 23.5051 21.8587 23.5051C21.7437 23.5051 21.6288 23.4786 21.5316 23.4167C21.2133 23.231 21.1072 22.8244 21.284 22.515L22.0355 21.2066H21.2929C20.8508 21.2066 20.4884 21.0121 20.2939 20.685C20.0994 20.3491 20.1171 19.9424 20.3381 19.5534L21.284 17.9091C21.4697 17.5908 21.8763 17.4847 22.1858 17.6616C22.504 17.8472 22.6101 18.2539 22.4333 18.5633L21.6818 19.8717H22.4244C22.8665 19.8717 23.2289 20.0662 23.4234 20.3933C23.6179 20.7292 23.6002 21.1447 23.3792 21.5248Z" fill="white"/>
</svg>
